<svg width="148" height="38" viewBox="0 0 148 38" fill="none" xmlns="http://www.w3.org/2000/svg">
<path d="M12.9344 13.0206L12.9299 34.5672L8.49038 34.5662L8.49483 13.0197L12.9344 13.0206ZM21.5155 22.227L21.5148 25.6898L11.7183 25.6879L11.719 22.225L21.5155 22.227ZM22.5533 13.0226L22.5526 16.5002L11.7202 16.498L11.7209 13.0204L22.5533 13.0226Z" fill="#FDFDFF"/>
<g filter="url(#filter0_d_2_12)">
<path d="M10.7339 21.0636C11.4123 21.0636 12.014 20.9356 12.5388 20.6796C13.0637 20.4107 13.4733 20.0395 13.7678 19.5659C14.075 19.0794 14.235 18.5098 14.2478 17.8569H19.4515C19.4387 19.3162 19.0483 20.6156 18.2802 21.7549C17.5121 22.8814 16.4816 23.7711 15.1887 24.4239C13.8958 25.064 12.4492 25.384 10.8491 25.384C9.23612 25.384 7.82798 25.1152 6.62466 24.5776C5.43414 24.0399 4.44204 23.2974 3.64836 22.3501C2.85468 21.39 2.25942 20.2763 1.86258 19.009C1.46575 17.7289 1.26733 16.3591 1.26733 14.8998V14.3429C1.26733 12.8708 1.46575 11.5011 1.86258 10.2337C2.25942 8.95361 2.85468 7.8399 3.64836 6.89261C4.44204 5.93251 5.43414 5.18364 6.62466 4.64598C7.81517 4.10833 9.21051 3.8395 10.8107 3.8395C12.5132 3.8395 14.0046 4.16594 15.2847 4.8188C16.5776 5.47166 17.5889 6.40616 18.3186 7.62228C19.0611 8.8256 19.4387 10.2529 19.4515 11.9043H14.2478C14.235 11.213 14.0878 10.5858 13.8062 10.0225C13.5373 9.45926 13.1405 9.01122 12.6157 8.67838C12.1036 8.33275 11.4699 8.15993 10.7147 8.15993C9.90818 8.15993 9.24892 8.33275 8.73687 8.67838C8.22481 9.01122 7.82798 9.47206 7.54635 10.0609C7.26472 10.637 7.0663 11.2962 6.95109 12.0387C6.84868 12.7684 6.79747 13.5365 6.79747 14.3429V14.8998C6.79747 15.7063 6.84868 16.4808 6.95109 17.2232C7.0535 17.9657 7.24552 18.625 7.52715 19.201C7.82158 19.7771 8.22481 20.2315 8.73687 20.5644C9.24892 20.8972 9.91458 21.0636 10.7339 21.0636Z" fill="#FFDE59"/>
</g>
<path d="M31.5327 14.7578V24H29.9395V14.7578H31.5327ZM35.3032 18.8013V20.0645H31.1265V18.8013H35.3032ZM35.8301 14.7578V16.0273H31.1265V14.7578H35.8301ZM40.7396 14.7578H44.0087C44.7111 14.7578 45.3099 14.8636 45.805 15.0752C46.3002 15.2868 46.6789 15.5999 46.9413 16.0146C47.2079 16.4251 47.3412 16.9329 47.3412 17.5381C47.3412 17.9993 47.2565 18.4056 47.0873 18.7568C46.918 19.1081 46.6789 19.4043 46.37 19.6455C46.0611 19.8825 45.6929 20.0666 45.2655 20.1978L44.7831 20.4326H41.8441L41.8314 19.1694H44.034C44.4149 19.1694 44.7323 19.1017 44.9862 18.9663C45.2401 18.8309 45.4305 18.6468 45.5575 18.4141C45.6887 18.1771 45.7543 17.9105 45.7543 17.6143C45.7543 17.2926 45.6908 17.0133 45.5638 16.7764C45.4411 16.5352 45.2507 16.3511 44.9925 16.2241C44.7344 16.0929 44.4064 16.0273 44.0087 16.0273H42.3329V24H40.7396V14.7578ZM46.0145 24L43.8436 19.8486L45.513 19.8423L47.7157 23.9175V24H46.0145ZM58.6174 22.7368V24H53.7107V22.7368H58.6174ZM54.1613 14.7578V24H52.5681V14.7578H54.1613ZM57.9763 18.6172V19.8613H53.7107V18.6172H57.9763ZM58.5857 14.7578V16.0273H53.7107V14.7578H58.5857ZM69.3477 22.7368V24H64.7076V22.7368H69.3477ZM65.1519 14.7578V24H63.5587V14.7578H65.1519ZM80.0082 22.7368V24H75.3681V22.7368H80.0082ZM75.8124 14.7578V24H74.2192V14.7578H75.8124ZM88.6058 15.9893L85.8445 24H84.1751L87.6536 14.7578H88.72L88.6058 15.9893ZM90.9163 24L88.1487 15.9893L88.0281 14.7578H89.1009L92.5921 24H90.9163ZM90.783 20.5723V21.8354H85.7557V20.5723H90.783ZM109.603 20.9912H111.19C111.139 21.5964 110.97 22.1359 110.682 22.6099C110.394 23.0796 109.99 23.4499 109.47 23.7207C108.949 23.9915 108.317 24.127 107.572 24.127C107.001 24.127 106.486 24.0254 106.029 23.8223C105.572 23.6149 105.181 23.3229 104.855 22.9463C104.529 22.5654 104.279 22.1063 104.106 21.5688C103.937 21.0314 103.852 20.4305 103.852 19.7661V18.998C103.852 18.3337 103.939 17.7327 104.112 17.1953C104.29 16.6579 104.544 16.1987 104.874 15.8179C105.204 15.4328 105.6 15.1387 106.061 14.9355C106.527 14.7324 107.049 14.6309 107.629 14.6309C108.365 14.6309 108.987 14.7663 109.495 15.0371C110.003 15.3079 110.397 15.6825 110.676 16.1606C110.959 16.6388 111.133 17.1868 111.196 17.8047H109.609C109.567 17.4069 109.474 17.0662 109.33 16.7827C109.19 16.4992 108.983 16.2834 108.708 16.1353C108.433 15.9829 108.073 15.9067 107.629 15.9067C107.265 15.9067 106.948 15.9744 106.677 16.1099C106.406 16.2453 106.18 16.4442 105.998 16.7065C105.816 16.9689 105.678 17.2926 105.585 17.6777C105.496 18.0586 105.452 18.4945 105.452 18.9854V19.7661C105.452 20.2316 105.492 20.6548 105.572 21.0356C105.657 21.4123 105.784 21.736 105.953 22.0068C106.127 22.2777 106.347 22.4871 106.613 22.6353C106.88 22.7834 107.199 22.8574 107.572 22.8574C108.025 22.8574 108.391 22.7855 108.67 22.6416C108.953 22.4977 109.167 22.2882 109.311 22.0132C109.459 21.7339 109.557 21.3932 109.603 20.9912ZM123.647 19.125V19.6328C123.647 20.3311 123.556 20.9574 123.374 21.5117C123.192 22.0661 122.932 22.5379 122.593 22.9272C122.259 23.3166 121.857 23.6149 121.387 23.8223C120.917 24.0254 120.397 24.127 119.826 24.127C119.259 24.127 118.74 24.0254 118.27 23.8223C117.805 23.6149 117.401 23.3166 117.058 22.9272C116.715 22.5379 116.449 22.0661 116.258 21.5117C116.072 20.9574 115.979 20.3311 115.979 19.6328V19.125C115.979 18.4268 116.072 17.8026 116.258 17.2524C116.444 16.6981 116.707 16.2262 117.045 15.8369C117.388 15.4434 117.792 15.145 118.258 14.9419C118.727 14.7345 119.246 14.6309 119.813 14.6309C120.384 14.6309 120.905 14.7345 121.374 14.9419C121.844 15.145 122.248 15.4434 122.587 15.8369C122.925 16.2262 123.186 16.6981 123.368 17.2524C123.554 17.8026 123.647 18.4268 123.647 19.125ZM122.054 19.6328V19.1123C122.054 18.596 122.003 18.1411 121.901 17.7476C121.804 17.3498 121.658 17.0176 121.463 16.751C121.273 16.4801 121.038 16.277 120.759 16.1416C120.479 16.002 120.164 15.9321 119.813 15.9321C119.462 15.9321 119.148 16.002 118.873 16.1416C118.598 16.277 118.363 16.4801 118.169 16.751C117.978 17.0176 117.832 17.3498 117.731 17.7476C117.629 18.1411 117.578 18.596 117.578 19.1123V19.6328C117.578 20.1491 117.629 20.6061 117.731 21.0039C117.832 21.4017 117.981 21.7381 118.175 22.0132C118.374 22.284 118.611 22.4893 118.886 22.6289C119.161 22.7643 119.474 22.832 119.826 22.832C120.181 22.832 120.496 22.7643 120.771 22.6289C121.046 22.4893 121.279 22.284 121.47 22.0132C121.66 21.7381 121.804 21.4017 121.901 21.0039C122.003 20.6061 122.054 20.1491 122.054 19.6328ZM131.565 24H129.591L129.604 22.7368H131.565C132.136 22.7368 132.615 22.612 133 22.3623C133.389 22.1126 133.681 21.755 133.876 21.2896C134.075 20.8241 134.174 20.2697 134.174 19.6265V19.125C134.174 18.6257 134.117 18.1834 134.003 17.7983C133.893 17.4132 133.728 17.0895 133.508 16.8271C133.292 16.5648 133.025 16.3659 132.708 16.2305C132.395 16.0951 132.033 16.0273 131.622 16.0273H129.553V14.7578H131.622C132.236 14.7578 132.797 14.8615 133.304 15.0688C133.812 15.272 134.25 15.5661 134.618 15.9512C134.991 16.3363 135.276 16.7975 135.475 17.335C135.674 17.8724 135.774 18.4733 135.774 19.1377V19.6265C135.774 20.2909 135.674 20.8918 135.475 21.4292C135.276 21.9666 134.991 22.4279 134.618 22.813C134.246 23.1938 133.802 23.488 133.285 23.6953C132.773 23.8984 132.2 24 131.565 24ZM130.473 14.7578V24H128.88V14.7578H130.473ZM147.063 22.7368V24H142.156V22.7368H147.063ZM142.607 14.7578V24H141.013V14.7578H142.607ZM146.421 18.6172V19.8613H142.156V18.6172H146.421ZM147.031 14.7578V16.0273H142.156V14.7578H147.031Z" fill="white"/>
<defs>
<filter id="filter0_d_2_12" x="0.0735302" y="3.83948" width="20.5718" height="23.9321" filterUnits="userSpaceOnUse" color-interpolation-filters="sRGB">
<feFlood flood-opacity="0" result="BackgroundImageFix"/>
<feColorMatrix in="SourceAlpha" type="matrix" values="0 0 0 0 0 0 0 0 0 0 0 0 0 0 0 0 0 0 127 0" result="hardAlpha"/>
<feOffset dy="1.1938"/>
<feGaussianBlur stdDeviation="0.596898"/>
<feComposite in2="hardAlpha" operator="out"/>
<feColorMatrix type="matrix" values="0 0 0 0 0 0 0 0 0 0 0 0 0 0 0 0 0 0 0.25 0"/>
<feBlend mode="normal" in2="BackgroundImageFix" result="effect1_dropShadow_2_12"/>
<feBlend mode="normal" in="SourceGraphic" in2="effect1_dropShadow_2_12" result="shape"/>
</filter>
</defs>
</svg>
