<svg width="252" height="133" viewBox="0 0 252 133" fill="none" xmlns="http://www.w3.org/2000/svg">
<path d="M126 74.7812C143.115 74.7812 158.235 79.0875 170.52 84.7188C181.86 90.0188 189 101.944 189 114.862V132.75H63V114.973C63 101.944 70.14 90.0188 81.48 84.8292C93.765 79.0875 108.885 74.7812 126 74.7812ZM42 77.5417C53.55 77.5417 63 67.6042 63 55.4583C63 43.3125 53.55 33.375 42 33.375C30.45 33.375 21 43.3125 21 55.4583C21 67.6042 30.45 77.5417 42 77.5417ZM53.865 89.6875C49.98 89.025 46.095 88.5833 42 88.5833C31.605 88.5833 21.735 90.9021 12.81 94.9875C9.00598 96.6973 5.7637 99.5452 3.48619 103.177C1.20868 106.809 -0.0036087 111.064 8.06919e-06 115.415V132.75H47.25V114.973C47.25 105.808 49.665 97.1958 53.865 89.6875ZM210 77.5417C221.55 77.5417 231 67.6042 231 55.4583C231 43.3125 221.55 33.375 210 33.375C198.45 33.375 189 43.3125 189 55.4583C189 67.6042 198.45 77.5417 210 77.5417ZM252 115.415C252 106.471 246.96 98.5208 239.19 94.9875C229.983 90.7628 220.045 88.5826 210 88.5833C205.905 88.5833 202.02 89.025 198.135 89.6875C202.335 97.1958 204.75 105.808 204.75 114.973V132.75H252V115.415ZM126 0.25C143.43 0.25 157.5 15.0458 157.5 33.375C157.5 51.7042 143.43 66.5 126 66.5C108.57 66.5 94.5 51.7042 94.5 33.375C94.5 15.0458 108.57 0.25 126 0.25Z" fill="#F2DB1E"/>
</svg>
